/* XPM */
static char*konsole[]={
"32 32 15 1",
"b c #808080",
"k c #ffa858",
"i c #a0a0a0",
"e c #c3c3c3",
"h c #c0c000",
"d c #808000",
"# c #000000",
"l c #ff8000",
"m c #800000",
"f c #ffdca8",
"g c #ffffc0",
". c None",
"c c #c0ffff",
"j c #dcdcdc",
"a c #ffffff",
".##############################.",
"#aaaaaaaaaaaaaaaaaaaaaaaaaaaaaa#",
"#a............................b#",
"#a.bbbbbbbbbbbbbbbbbbbbbbbbbb.b#",
"#a.b########################a.b#",
"#a.b########################a.b#",
"#a.b##c#####################a.b#",
"#a.b###c####################a.b#",
"#a.b##c##cc#################a.b#",
"#a.b########################a.b#",
"#a.b##############ddd#######aeb#",
"#a.b#############ffgghdhfhd#aeb#",
"#a.b#########dhgfifagfiefagh#eb#",
"#a.b#########hfgjhfggfhfggfhd#b#",
"#a.b########iegafegfagkfgagkeh##",
"#a.b######dhkifgfieggfhgggfhfg##",
"#a.b######fgfhfaffkfagifgagkgfh#",
"#a.b######gafkgggghggfhgafiefgd#",
"#a.b######hfgfhfafkfagkfgfhfggh#",
"#aeb#####digafkifgigffhgagkfah##",
"#aeb#####hhefgfhfghkagkfgieggh##",
"#aeb#####gfkfagkefgigfegfhfah#b#",
"#aebaaaa#fafiggghfghaghaheggh#b#",
"#ae.....#hggfkgafhfiefkgkfah#eb#",
"#aeaaabea#hfafhfgighffhfihg#ieb#",
"#aeabbbeab#hggfiffhkflfkkgh#ieb#",
"#aee.......##hafhlffgffffl#..eb#",
"#abbbbbbbbbbb#hgkfggaggffh#bbbb#",
".##############mhfggggffh######.",
"...............##hffffkh#.......",
".................#hkhkh#........",
"..................#####........."};
