/* XPM */
/* Drawn by Torsten Rahn dedicated to Steffi */
static char*konsole[]={
"32 32 15 1",
"c c #808080",
"k c #ffa858",
"b c #c0c0c0",
"h c #c0c000",
"e c #808000",
"# c #000000",
"l c #ff8000",
". c None",
"m c #800000",
"f c #ffdca8",
"g c #ffffc0",
"d c #c0ffff",
"i c #a0a0a4",
"j c #dcdcdc",
"a c #ffffff",
".##############################.",
"#aaaaaaaaaaaaaaaaaaaaaaaaaaaaaa#",
"#abbbbbbbbbbbbbbbbbbbbbbbbbbbbc#",
"#abccccccccccccccccccccccccccbc#",
"#abc########################abc#",
"#abc########################abc#",
"#abc##d#####################abc#",
"#abc###d####################abc#",
"#abc##d##dd#################abc#",
"#abc########################abc#",
"#abc##############eee#######abc#",
"#abc#############ffgghehfhe#abc#",
"#abc#########ehgfifagfibfagh#bc#",
"#abc#########hfgjhfggfhfggfhe#c#",
"#abc########ibgafbgfagkfgagkbh##",
"#abc######ehkifgfibggfhgggfhfg##",
"#abc######fgfhfaffkfagifgagkgfh#",
"#abc######gafkgggghggfhgafibfge#",
"#abc######hfgfhfafkfagkfgfhfggh#",
"#abc#####eigafkifgigffhgagkfah##",
"#abc#####hhbfgfhfghkagkfgibggh##",
"#abc#####gfkfagkbfgigfbgfhfah#c#",
"#abcaaaa#fafiggghfghaghahbggh#c#",
"#abbbbbb#hggfkgafhfibfkgkfah#bc#",
"#abaaacba#hfafhfgighffhfihg#ibc#",
"#abacccbac#hggfiffhkflfkkgh#ibc#",
"#abbbbbbbbb##hafhlffgffffl#bbbc#",
"#accccccccccc#hgkfggaggffh#cccc#",
".##############mhfggggffh######.",
"...............##hffffkh#.......",
".................#hkhkh#........",
"..................#####........."};
