/* XPM */
/* Drawn for the K Desktop Environment */
/* See http://www.kde.org */
static char*kconsole[]={
"16 16 5 1",
"b c #808080",
". c None",
"c c #c0ffff",
"# c #000000",
"a c #ffffff",
"................",
".##############.",
"#aaaaaaaaaaaaaa#",
"#abbbbbbbbbbbbb#",
"#ab##########ab#",
"#ab#c########ab#",
"#ab#c#c######ab#",
"#ab##########ab#",
"#ab##########ab#",
"#ab##########ab#",
"#ab##########ab#",
"#ab##########ab#",
"#aaaaaaaaaaaaab#",
"#bbbbbbbbbbbbbb#",
".##############.",
"................"};
