/* XPM */
/* Drawn by Torsten Rahn dedicated to Steffi */
static char*konsole[]={
"32 32 14 1",
"b c #808080",
"j c #ffa858",
"g c #c0c000",
"d c #808000",
"# c #000000",
"k c #ff8000",
"l c #800000",
"e c #ffdca8",
"f c #ffffc0",
". c None",
"c c #c0ffff",
"h c #a0a0a4",
"i c #dcdcdc",
"a c #ffffff",
".##############################.",
"#aaaaaaaaaaaaaaaaaaaaaaaaaaaaaa#",
"#a............................b#",
"#a.bbbbbbbbbbbbbbbbbbbbbbbbbb.b#",
"#a.b########################a.b#",
"#a.b########################a.b#",
"#a.b##c#####################a.b#",
"#a.b###c####################a.b#",
"#a.b##c##cc#################a.b#",
"#a.b########################a.b#",
"#a.b##############ddd#######a.b#",
"#a.b#############eeffgdgegd#a.b#",
"#a.b#########dgfeheafeh.eafg#.b#",
"#a.b#########gefigeffegeffegd#b#",
"#a.b########h.fae.feafjefafj.g##",
"#a.b######dgjhefeh.ffegfffegef##",
"#a.b######efegeaeejeafhefafjfeg#",
"#a.b######faejffffgffegfaeh.efd#",
"#a.b######gefegeaejeafjefegeffg#",
"#a.b#####dhfaejhefhfeegfafjeag##",
"#a.b#####gg.efegefgjafjefh.ffg##",
"#a.b#####fejeafj.efhfe.fegeag#b#",
"#a.baaaa#eaehfffgefgafgag.ffg#b#",
"#a......#gffejfaegeh.ejfjeag#.b#",
"#a.aaab.a#geaegefhfgeegehgf#h.b#",
"#a.abbb.ab#gffeheegjekejjfg#h.b#",
"#a.........##gaegkeefeeeek#...b#",
"#abbbbbbbbbbb#gfjeffaffeeg#bbbb#",
".##############lgeffffeeg######.",
"...............##geeeejg#.......",
".................#gjgjg#........",
"..................#####........."};
