/* XPM */
static char * konsole_xpm[] = {
"32 32 218 2",
"  	c None",
". 	c #020204",
"+ 	c #BEBEBC",
"@ 	c #FEFEFC",
"# 	c #EEEEEC",
"$ 	c #EAEAEC",
"% 	c #E6E6E4",
"& 	c #E2E2E4",
"* 	c #DEDEDC",
"= 	c #DADADC",
"- 	c #D6D6D4",
"; 	c #D2D2D4",
"> 	c #CECECC",
", 	c #CACACC",
"' 	c #C6C6C4",
") 	c #C2C2C4",
"! 	c #BABABC",
"~ 	c #767674",
"{ 	c #666664",
"] 	c #B6B6B4",
"^ 	c #161617",
"/ 	c #1A1210",
"( 	c #1A1A1C",
"_ 	c #B2B2B4",
": 	c #AEAEAC",
"< 	c #AAAAAC",
"[ 	c #1E1E1C",
"} 	c #462E24",
"| 	c #6A524C",
"1 	c #2E1E14",
"2 	c #221614",
"3 	c #2A1E1C",
"4 	c #422A24",
"5 	c #CEA67C",
"6 	c #F2D69C",
"7 	c #F6CE94",
"8 	c #CAA27C",
"9 	c #7E5A44",
"0 	c #5E4A3C",
"a 	c #9A7A68",
"b 	c #927A6C",
"c 	c #A6A6A4",
"d 	c #C29E7C",
"e 	c #D2B294",
"f 	c #8A6654",
"g 	c #6E564C",
"h 	c #EACE8C",
"i 	c #FEFEB4",
"j 	c #FEFABE",
"k 	c #EAC69C",
"l 	c #9A7E68",
"m 	c #967260",
"n 	c #DAB690",
"o 	c #F6E69C",
"p 	c #BE9677",
"q 	c #826664",
"r 	c #866E5C",
"s 	c #FAFAB4",
"t 	c #FEEAA7",
"u 	c #AE8674",
"v 	c #F6DAA4",
"w 	c #FEFECA",
"x 	c #F2DE90",
"y 	c #9E7E6C",
"z 	c #DEBA94",
"A 	c #FAE6A7",
"B 	c #E2C684",
"C 	c #AE7A64",
"D 	c #4A3E34",
"E 	c #362A24",
"F 	c #A28274",
"G 	c #FEFAA4",
"H 	c #F6EEC4",
"I 	c #EED694",
"J 	c #F6E29C",
"K 	c #FAF6CC",
"L 	c #FEFEF0",
"M 	c #AA8670",
"N 	c #F6DE94",
"O 	c #FEFED6",
"P 	c #F6E2A4",
"Q 	c #764E44",
"R 	c #321E14",
"S 	c #9E765C",
"T 	c #BE9A6C",
"U 	c #FEE6B4",
"V 	c #E2BE8C",
"W 	c #FAF6B0",
"X 	c #F2DA94",
"Y 	c #B68E6C",
"Z 	c #F6EE94",
"` 	c #FEF6CC",
" .	c #DEC694",
"..	c #D6AE84",
"+.	c #C69A74",
"@.	c #52362C",
"#.	c #AA8A6C",
"$.	c #FEDE9C",
"%.	c #BE9A80",
"&.	c #D6CA84",
"*.	c #FEFAE8",
"=.	c #FEEECC",
"-.	c #F2D29C",
";.	c #C6AA8C",
">.	c #FEFEE4",
",.	c #E2CAA0",
"'.	c #DAB274",
").	c #F6E6A4",
"!.	c #FEFAD6",
"~.	c #D6B67C",
"{.	c #FEFAB2",
"].	c #FEF6AC",
"^.	c #CEAE8C",
"/.	c #322624",
"(.	c #D6B694",
"_.	c #FEFA9C",
":.	c #FEEEB4",
"<.	c #B69674",
"[.	c #FAEEA4",
"}.	c #E6D294",
"|.	c #F6E6C0",
"1.	c #EEDE94",
"2.	c #FEF2B4",
"3.	c #B69A7C",
"4.	c #FAFAC4",
"5.	c #CEAA84",
"6.	c #DECA94",
"7.	c #FEF2C4",
"8.	c #E2BA8B",
"9.	c #F2DE9C",
"0.	c #E6D6BC",
"a.	c #EAD294",
"b.	c #FEFACC",
"c.	c #8E6A54",
"d.	c #EAC27C",
"e.	c #FAEAB4",
"f.	c #EED6A4",
"g.	c #D6BA94",
"h.	c #EEDEAC",
"i.	c #FEF6C1",
"j.	c #A28A6C",
"k.	c #6A4A40",
"l.	c #F2DAB4",
"m.	c #FEF6D4",
"n.	c #DAB284",
"o.	c #F2DA9C",
"p.	c #EEE69C",
"q.	c #D2B284",
"r.	c #E6D2B4",
"s.	c #FEEEC0",
"t.	c #CAC68C",
"u.	c #5A3A2C",
"v.	c #C2A27F",
"w.	c #DEBE7C",
"x.	c #C29674",
"y.	c #EED6AC",
"z.	c #FAEABC",
"A.	c #DEBA8C",
"B.	c #E6D6AC",
"C.	c #FEE6AC",
"D.	c #6A4E40",
"E.	c #E2C284",
"F.	c #F6E2BC",
"G.	c #FAF2CC",
"H.	c #DEBE90",
"I.	c #F6F2CC",
"J.	c #EADA90",
"K.	c #AE8A5C",
"L.	c #5E5654",
"M.	c #7A6254",
"N.	c #A27E64",
"O.	c #D2B674",
"P.	c #F2E6B4",
"Q.	c #E2D294",
"R.	c #EACEA4",
"S.	c #EAD2AC",
"T.	c #EECA94",
"U.	c #CEBE9C",
"V.	c #009000",
"W.	c #38FB30",
"X.	c #7A625C",
"Y.	c #FAE2A8",
"Z.	c #F2EAB4",
"`.	c #E2CEAC",
" +	c #F6B664",
".+	c #FEAE54",
"++	c #FECE84",
"@+	c #8A6E5C",
"#+	c #867A74",
"$+	c #FAF29C",
"%+	c #F2B66C",
"&+	c #F6BE64",
"*+	c #FEE2AC",
"=+	c #FEC27C",
"-+	c #FEC66C",
";+	c #BEA244",
">+	c #8E8E8C",
",+	c #E6DAA4",
"'+	c #DEB684",
")+	c #EA9A54",
"!+	c #FEDA9C",
"~+	c #FEEABC",
"{+	c #864E24",
"]+	c #261614",
"^+	c #CAAE8C",
"/+	c #E2AE4C",
"(+	c #FADA98",
"_+	c #C29A7C",
":+	c #6E5204",
"<+	c #BAB654",
"[+	c #FEEAB4",
"}+	c #FAD68C",
"|+	c #76624C",
"1+	c #BEA68C",
"2+	c #EECE9C",
"3+	c #AE8E74",
"4+	c #825E4C",
"5+	c #6E4A3C",
"  . . . . . . . . . . . . . . . . . . . . . . . . . . . .       ",
". + @ @ @ @ @ @ @ @ @ @ @ @ @ @ @ @ @ @ @ @ @ @ @ @ @ @ + .     ",
". @ # # # $ $ % & & * * = = - ; ; > > , , ' ) ) + + ! ! ~ .     ",
". @ # # # $ % % & & * * = = - ; ; > > , , ' ) ) + + ! ! ~ .     ",
". @ # $ { { { { { { { { { { { { { { { { { { { { { { ] ] ~ .     ",
". @ # $ { ^ ^ ^ ^ ^ / ^ ^ ^ ^ ^ ^ ^ ^ ^ ( ^ ( ( / @ ] ] ~ .     ",
". @ $ % { . @ . . . . . . . . . . . . . . . . . . @ ] _ ~ .     ",
". @ $ % { . . @ . . . . . . . . . . . . . . . . . @ _ _ ~ .     ",
". @ % & { . @ . . @ @ . . . . . . . . . . . . . . @ : < ~ .     ",
". @ % & { . . . . . . . . . . . . . . . . . . . . @ : < ~ .     ",
". @ & * { . . . . [ . . . . . . . . } | | 1 . . . @ : < ~ .     ",
". @ & * { . . . . . . . . . 2 3 / 4 5 6 7 8 9 3 0 a b c ~ .     ",
". @ * = { . . . . . . . . 4 d e f g h i j k l m n o p q ~ .     ",
". @ * = { . . . . . . . . r s t n u v s w x y z A j B C D .     ",
". @ = - { . . . . . . ( E F G H I d J K L I M N j O P a Q E .   ",
". @ = - { . . . . . R M S T i O U d V W L X Y Z O `  .F ..+.@.. ",
". @ - ; { . . . . ^ #.6 $.%.&.*.=.-.;.s >.,.'.).!.j ~...{.].^.. ",
". @ ; > { . . . . /.(._.:.k ;.].j A <.[.>.}.V W L |.p 1.O 2.3.. ",
". @ ; ; { . . . . ^ <.4.!.v 5.6.O 7.8.9.*.0.8.j j a.5.:.b.P .   ",
". @ > , { . . . . / c.I O U d.d e.7.f.g.>.h.V W >.<.X O i.j..   ",
". @ > > { . . . . k.M p l.m.A n.o.w p.q.O r.8.j s.p {.i.t..     ",
". @ , ' { . . . u.v.x w.x.|.!.$.p y.z.A.H B.w.e. .8.O C.D..     ",
". @ , , { @ @ @ k.E.` F.8.v.w G.8.H.I.n p.0.n 4.^.J.i.K.L..     ",
". @ ' ) ) + + + M.N.X m.F.n O.I.).A.P.Q.R.S.T.h...G.U.k.~ .     ",
". @ ' ' V.W.! ! ] X.S Y.O i.B 5 Z.`.B  +X .+++d.7 s.@+#+~ .     ",
". @ ) + + + ! ] ] _ : 9 v.$+!.y.<.%+J &+*+$.*+=+-+;+| >+~ .     ",
". + ~ ~ ~ ~ ~ ~ ~ ~ ~ ~ Q Y ,+b.'+)+!+:.b.O w ~+++{+~ ~ ~ .     ",
"  . . . . . . . . . . . . ]+g ^+/+(+b.O L >.w U _+. . . .       ",
"                            . . :+<+2.i.{.j [+}+|+.             ",
"                                . . 1+T.C.A 2+3+.               ",
"                                    . 4+a c.5+.                 ",
"                                      . . . .                   "};
