/* XPM */
/* Drawn by Torsten Rahn dedicated to Steffi */
static char * konsole_xpm[] = {
"48 48 179 2",
"  	c None",
". 	c #000000",
"+ 	c #C1C1C1",
"@ 	c #FFFFFF",
"# 	c #EFEFEF",
"$ 	c #EEEEEE",
"% 	c #ECECEC",
"& 	c #EAEAEA",
"* 	c #E9E9E9",
"= 	c #E7E7E7",
"- 	c #E5E5E5",
"; 	c #E3E3E3",
"> 	c #E2E2E2",
", 	c #E0E0E0",
"' 	c #DEDEDE",
") 	c #DDDDDD",
"! 	c #DBDBDB",
"~ 	c #D9D9D9",
"{ 	c #D8D8D8",
"] 	c #D6D6D6",
"^ 	c #D4D4D4",
"/ 	c #D2D2D2",
"( 	c #D1D1D1",
"_ 	c #CFCFCF",
": 	c #CDCDCD",
"< 	c #CCCCCC",
"[ 	c #CACACA",
"} 	c #C8C8C8",
"| 	c #C7C7C7",
"1 	c #C5C5C5",
"2 	c #C3C3C3",
"3 	c #C0C0C0",
"4 	c #BEBEBE",
"5 	c #777777",
"6 	c #020204",
"7 	c #E4E4E4",
"8 	c #DFDFDF",
"9 	c #D3D3D3",
"0 	c #CECECE",
"a 	c #C2C2C2",
"b 	c #BDBDBD",
"c 	c #EBEBEB",
"d 	c #E6E6E6",
"e 	c #DADADA",
"f 	c #D5D5D5",
"g 	c #C9C9C9",
"h 	c #C4C4C4",
"i 	c #BFBFBF",
"j 	c #BBBBBB",
"k 	c #666664",
"l 	c #4A4A4C",
"m 	c #BABABA",
"n 	c #BCBCBC",
"o 	c #B8B8B8",
"p 	c #B7B7B7",
"q 	c #424244",
"r 	c #B9B9B9",
"s 	c #B5B5B5",
"t 	c #EDEDED",
"u 	c #B4B4B4",
"v 	c #B6B6B6",
"w 	c #B2B2B2",
"x 	c #B1B1B1",
"y 	c #B3B3B3",
"z 	c #AFAFAF",
"A 	c #624234",
"B 	c #8E7264",
"C 	c #AEAEAE",
"D 	c #E8E8E8",
"E 	c #120D16",
"F 	c #BE9674",
"G 	c #DEB687",
"H 	c #EDCE9F",
"I 	c #A6725C",
"J 	c #4A3A2C",
"K 	c #3E3E3C",
"L 	c #ACACAC",
"M 	c #040209",
"N 	c #564A3C",
"O 	c #FCEAAB",
"P 	c #FCFC9C",
"Q 	c #FDE6A9",
"R 	c #EDD2A5",
"S 	c #ABABAB",
"T 	c #EEC694",
"U 	c #725649",
"V 	c #AB877F",
"W 	c #ECD48C",
"X 	c #FCFC88",
"Y 	c #FEFEC1",
"Z 	c #C6AE84",
"` 	c #775C50",
" .	c #FBF088",
"..	c #F7DDA7",
"+.	c #F2D5AC",
"@.	c #F0EE91",
"#.	c #FEFDD1",
"$.	c #2B2A27",
"%.	c #FEEAB6",
"&.	c #CEAE94",
"*.	c #F2DD9F",
"=.	c #FEFEE2",
"-.	c #F9D590",
";.	c #F5E5AC",
">.	c #BE9E84",
",.	c #A78466",
"'.	c #EEDEB9",
").	c #FDFAE6",
"!.	c #FED391",
"~.	c #FDEFAC",
"{.	c #FEEEB7",
"].	c #F8DA94",
"^.	c #DCDCDC",
"/.	c #FDC382",
"(.	c #CEC26C",
"_.	c #FDEBCE",
":.	c #E4BC74",
"<.	c #ECDA98",
"[.	c #FEF2BC",
"}.	c #FEF6BD",
"|.	c #FEDCA9",
"1.	c #FDE2A9",
"2.	c #CEA67C",
"3.	c #FCFABD",
"4.	c #D7D7D7",
"5.	c #FED4A0",
"6.	c #FDF5CF",
"7.	c #FEE5B8",
"8.	c #373604",
"9.	c #E2D684",
"0.	c #ECCE6E",
"a.	c #DEC6A0",
"b.	c #FECC8E",
"c.	c #F6D6A1",
"d.	c #FEF5E4",
"e.	c #ECECB7",
"f.	c #161609",
"g.	c #E2CE68",
"h.	c #E2BE74",
"i.	c #E5CD9E",
"j.	c #D0D0D0",
"k.	c #5A5A5C",
"l.	c #F2F2B4",
"m.	c #FDFDFA",
"n.	c #EEEEC7",
"o.	c #CBCBCB",
"p.	c #C6C6C6",
"q.	c #EADABC",
"r.	c #F6F2D4",
"s.	c #ECD274",
"t.	c #FEDC9C",
"u.	c #FECC84",
"v.	c #FEB86C",
"w.	c #919191",
"x.	c #009000",
"y.	c #FE8E14",
"z.	c #F9AA5E",
"A.	c #FDAE54",
"B.	c #FE9624",
"C.	c #F5F1A7",
"D.	c #909090",
"E.	c #38FB30",
"F.	c #626264",
"G.	c #EACA64",
"H.	c #FEBE64",
"I.	c #AE8E2C",
"J.	c #8F8F8F",
"K.	c #F69214",
"L.	c #7A4204",
"M.	c #232324",
"N.	c #12120C",
"O.	c #BE8A24",
"P.	c #090A06",
"Q.	c #765204",
"R.	c #9E9614",
"S.	c #F3D380",
"T.	c #100E08",
"U.	c #22220C",
"V.	c #1A1A0A",
"                                                                                                ",
"                                                                                                ",
"                                                                                                ",
"      . . . . . . . . . . . . . . . . . . . . . . . . . . . . . . . . . . . . . . .             ",
"    . + @ @ @ @ @ @ @ @ @ @ @ @ @ @ @ @ @ @ @ @ @ @ @ @ @ @ @ @ @ @ @ @ @ @ @ @ @ + .           ",
"    . @ # # # # # # # # $ % & * = - ; > , ' ) ! ~ { ] ^ / ( _ : < [ } | 1 2 + 3 4 5 6           ",
"    . @ # # # # # # # $ % & * = - 7 > , 8 ) ! ~ { ] ^ 9 ( _ 0 < [ } | 1 2 a 3 4 b 5 6           ",
"    . @ # # # # # # $ % c * = d 7 > , 8 ) ! e { ] f 9 ( _ 0 < [ g | 1 h a 3 i b j 5 6           ",
"    . @ # # # k l l l l l l l l l l l l l l l l l l l l l l l l l l l l l l b j m 5 6           ",
"    . @ # # # l . . . . . . . . . . . . . . . . . . . . . . . . . . . . . @ n m o 5 6           ",
"    . @ # # # l . . . . . . . . . . . . . . . . . . . . . . . . . . . . . @ m o p 5 6           ",
"    . @ # # # q . . @ . . . . . . . . . . . . . . . . . . . . . . . . . . @ r p s 5 6           ",
"    . @ # # t q . . . @ . . . . . . . . . . . . . . . . . . . . . . . . . @ p s u 5 6           ",
"    . @ # $ % l . . . . @ . . . . . . . . . . . . . . . . . . . . . . . . @ v u w 5 6           ",
"    . @ $ % & l . . . @ . . . . . . . . . . . . . . . . . . . . . . . . . @ u w x 5 6           ",
"    . @ % c * q . . @ . . . . @ @ @ . . . . . . . . . . . . . . . . . . . @ y x z 5 6           ",
"    . @ c * = l . . . . . . . . . . . . . . . . . . . A B B B A . . . . . @ x z C 5 6           ",
"    . @ * D d q . . . . . . . . . . . . . . . . . E A F G H G F I J . K A B B C L 5 6           ",
"    . @ D d - l . . . . . . . . . . . . M A B B A N A G O P Q R F B A B F H F A S 5 6           ",
"    . @ d - ; q . . . . . . . . . . . . A G H T F U V W X Y Y T Z ` V H H  .H V A 5 6           ",
"    . @ - ; > l . . . . . . . . . . . . B Q P ..T V F +.@.#.Y @.G B G H P Y W F I J $.          ",
"    . @ ; > , q . . . . . . . . . . . K B  .%.....F &.*.P =.#...Z V -.Q #.Y ;.G B A $..         ",
"    . @ > , 8 l . . . . . . . . . K A A >.@.Y #...T ,.W '.=.).@.Z ,.!.X =.#.~.Z ` I B A 6       ",
"    . @ , 8 ) q . . . . . . . . A F F ,.F  .=.Y %.H F G @.=.#...G F @.Y ).{.].V F G G F A .     ",
"    . @ 8 ) ^.l . . . . . . . K F G H /.V (.Y =._...G &.@.Y #.'.>.:.<.[.=.}.W F G ~.Q Q F .     ",
"    . @ ' ^.e q . . . . . . . A G Q  .|.G ,.1.#.#.|.R ,.'.Y =...2.W {.[.).}.:.V ].P #.-.G .     ",
"    . @ ^.e ~ l . . . . . . . B R  .#.|.H >.+.X Y Y W F W P =.~.F +.@.#.=.R ,.W P =.3.-.B .     ",
"    . @ ! ~ 4.q . . . . . . . K G Y ).[.5.T ,.1.6.).1.G W 7.=._.2.H [.Y {.W F R {.#.Q T .       ",
"    . @ ~ 4.] l . . . . . . . 8.F 9.[.#.7.0.F a.P Y 7.H 2.%.=.[.G W [.).{.F G  .6.3.-.B .       ",
"    . @ { ] ^ q . . . . . . . A B G Y ).7.b.c.,.a.7.Y 1.F }.=.Y 2.H @.).3.,.-.3.d.e.G f.        ",
"    . @ ] ^ 9 l . . . . . . A B F ,.G 7.#.{.c.G H X =.@.F @.d._.F !.[.}.R F P #.Q -..           ",
"    . @ f 9 ( q . . . . . A B G g.h.,.G 6.#.Q c.F a.Y 7.G i.6.}.>.W ..{.G G #.=.-.B .           ",
"    . @ 9 ( j.k.. . . . . A F  .1.i.T F c.=.3.H G F 1.Y i.G 3.Y 2.R l.[.,.-.3. .G A 6           ",
"    . @ / j.0 l m.m.m.m.m.A F |.=._.H G ,.X ).Y H G a.Y i.&.X _.F R n.R F P #.T A 5 6           ",
"    . @ j.0 : o.g } p.h 2 A B G P =.7.i.G F X =.;.H G 7.@.&.R q.G R ~.F H r.3.B A 5 6           ",
"    . @ _ : o.[ } p.h 2 + i A B G 7.#.=.7.s.,.c.~.e.>.a.7.g.t.u.v.~.R G ;.;.T A w.5 6           ",
"    . @ : o.[ x.x.x.2 + 3 4 n A B G P Y 3.{.-.F a...R g.y.z.t.A.B.].v.z.C.;.B A D.5 6           ",
"    . @ < [ } x.E.E.+ 3 4 n j r F.A B G X =._.R ,.G A.~.G./.Q Q Q |./.H.H.I.A D.J.5 6           ",
"    . @ [ } | 1 2 a 3 4 b j r p v u A B G X =.7.G F y.u.1.1.3.3.3.Y |.|.K.L.A J.J.5 6           ",
"    . + 5 5 5 5 5 5 5 5 5 5 5 5 5 5 5 A A B H P b.A.|.}.Y Y =.=.=.Y Y |.G A 5 5 5 5 6           ",
"      . . . . . M.M.M.M.6 6 M.M.M.M.M.M.6 N.B ,.O.g.|.3.Y =.@ =.3.Y |.G A f.P.M.M.M.            ",
"                                            6 . Q.R.X O }.}.}.}.{.|.S.G T.                      ",
"                                                6 U.B |.|.P P P P |.G B .                       ",
"                                                    V.B F G H H G F B N.                        ",
"                                                      . A B B B A A V.                          ",
"                                                        6 6 6 6 6 6                             ",
"                                                                                                ",
"                                                                                                "};
